<svg id="Capa_1" enable-background="new 0 0 512 512" height="512" viewBox="0 0 512 512" width="512" xmlns="http://www.w3.org/2000/svg"><path d="m507.606 438.193-262.526-262.526 69.727-69.727c4.29-4.29 5.574-10.742 3.252-16.347s-7.792-9.26-13.858-9.26h-128.534c-3.979 0-7.793 1.58-10.606 4.394l-128.534 128.533c-5.858 5.858-5.858 15.355 0 21.213l64.267 64.267c5.857 5.858 15.355 5.858 21.213 0l53.66-53.66 262.527 262.526c2.929 2.929 6.768 4.394 10.606 4.394s7.678-1.464 10.606-4.394l48.2-48.2c5.858-5.858 5.858-15.355 0-21.213z" fill="#ff1f3e"/><path d="m483.506 483.506 24.1-24.1c5.858-5.858 5.858-15.355 0-21.213l-262.526-262.526 69.727-69.727c4.29-4.29 5.574-10.742 3.252-16.347s-7.792-9.26-13.858-9.26h-128.534c-3.979 0-7.793 1.58-10.606 4.394l-40.167 40.167z" fill="#b20042"/><path d="m63.2 512c-3.839 0-7.678-1.464-10.606-4.394l-48.2-48.2c-5.858-5.858-5.858-15.355 0-21.213l96.4-96.4c5.544-5.546 14.427-5.883 20.377-.775.503.429 53.062 44.581 118.763 44.581 111.294 0 177.8-82.232 177.8-161.733 0-130.453-104.215-195.413-105.268-196.054-6.403-3.898-8.945-11.926-5.953-18.799 2.993-6.874 10.604-10.481 17.817-8.452 34.957 9.839 187.67 73.388 187.67 255.44 0 129.116-93.92 239.932-239.933 239.932-64.21 0-119.931-29.86-142.642-43.945l-55.618 55.618c-2.929 2.93-6.768 4.394-10.607 4.394z" fill="#ff6379"/><path d="m324.33.563c-7.213-2.03-14.824 1.578-17.817 8.452-2.992 6.874-.451 14.901 5.953 18.799 1.053.641 105.268 65.601 105.268 196.054 0 47.494-23.742 95.956-66.581 127.284l84.309 84.309c48.78-44.511 76.538-109.278 76.538-179.46 0-182.052-152.713-245.601-187.67-255.438z" fill="#ff1f3e"/></svg>