<svg height="512" viewBox="0 0 56 60" width="512" xmlns="http://www.w3.org/2000/svg"><g id="010---Labour" fill="none"><g id="Icons" transform="translate(1 1)"><path id="Shape" d="m54 24.56v4.88c.0004369.9161965-.6217263 1.7155319-1.51 1.94l-4.16 1-.06.22c-.5269451 1.9689442-1.3209853 3.8564719-2.36 5.61l2.21 3.67c.4759671.7883423.3521164 1.7997904-.3 2.45l-3.45 3.45c-.6502096.6521164-1.6616577.7759671-2.45.3l-3.67-2.21c-6.9277364 4.1173807-15.5522636 4.1173807-22.48 0l-3.67 2.21c-.7883423.4759671-1.7997904.3521164-2.45-.3l-3.47-3.41c-.65211635-.6502096-.77596715-1.6616577-.3-2.45l2.21-3.67c0-.1-.08 0-.75-1.38-.71284103-1.4199394-1.27265557-2.9116608-1.67-4.45l-4.16-1c-.90291946-.2279625-1.52902011-1.0489422-1.51-1.98v-4.88c-.00043693-.9161965.62172626-1.7155319 1.51-1.94l4.16-1c.51992877-2.0471685 1.33514576-4.0077317 2.42-5.82l-2.21-3.72c-.47596715-.7883423-.35211635-1.7997904.3-2.45l3.45-3.45c.6502096-.65211635 1.6616577-.77596715 2.45-.3l3.67 2.21c.1 0 0-.08 1.38-.75 1.4216798-.70885252 2.9129741-1.26850677 4.45-1.67l1-4.16c.2279625-.90291946 1.0489422-1.52902011 1.98-1.51h4.88c.9161965-.00043693 1.7155319.62172626 1.94 1.51l1 4.16c2.04566.52445145 4.0055888 1.33940469 5.82 2.42l3.67-2.21c.7883423-.47596715 1.7997904-.35211635 2.45.3l3.45 3.45c.6521164.6502096.7759671 1.6616577.3 2.45l-2.21 3.67c0 .1.08 0 .75 1.38.7148082 1.4190786 1.2747033 2.9110148 1.67 4.45l4.16 1c.9228201.2080152 1.5736944 1.0341249 1.56 1.98z" fill="#3f51b5"/><path id="Shape" d="m52.49 22.62-4.16-1c-.3952967-1.5389852-.9551918-3.0309214-1.67-4.45-.67-1.34-.75-1.28-.75-1.38l2.21-3.67c.4759671-.7883423.3521164-1.7997904-.3-2.45l-3.45-3.49c-.6502096-.65211635-1.6616577-.77596715-2.45-.3l-.53.32 3.43 3.43c.6521164.6502096.7759671 1.6616577.3 2.45l-2.21 3.67c0 .1.08 0 .75 1.38.7148082 1.4190786 1.2747033 2.9110148 1.67 4.45l4.16 1c.9029195.2279625 1.5290201 1.0489422 1.51 1.98v4.88c.0004369.9161965-.6217263 1.7155319-1.51 1.94l-4.16 1-.06.22c-.5269451 1.9689442-1.3209853 3.8564719-2.36 5.61l2.21 3.67c.4759671.7883423.3521164 1.7997904-.3 2.45l-3.43 3.47.53.32c.7883423.4759671 1.7997904.3521164 2.45-.3l3.45-3.45c.6521164-.6502096.7759671-1.6616577.3-2.45l-2.21-3.67c1.0390147-1.7535281 1.8330549-3.6410558 2.36-5.61l.06-.22 4.16-1c.9029195-.2279625 1.5290201-1.0489422 1.51-1.98v-4.88c.0004369-.9161965-.6217263-1.7155319-1.51-1.94z" fill="#283593"/><circle id="Oval" cx="27" cy="27" fill="#ef314c" r="18"/><path id="Shape" d="m27 58c-1.6568542 0-3-1.3431458-3-3v-24h6v24c0 1.6568542-1.3431458 3-3 3z" fill="#a0522d"/><path id="Shape" d="m38.38 31h-22.2c-.2954177.0038102-.5774004-.1232063-.7703064-.3469772-.192906-.223771-.2769889-.5213907-.2296936-.8130228l1.67-10c.0792284-.4890578.5046072-.846376 1-.84h15.53c.3801569-.0026457.7289345.2104962.9.55l5 10c.1567797.3111094.1403468.6813893-.0433761.9773872-.1837229.295998-.508252.4750458-.8566239.4726128z" fill="#607d8b"/></g><g id="Layer_10" fill="#000"><path id="Shape" d="m53.73 22.65-3.59-.9c-.4896882-1.7427156-1.1845515-3.4211292-2.07-5l1.93-3.16c.7113004-1.1813654.5256459-2.6954809-.45-3.67l-3.47-3.45c-.9695817-.98220909-2.4841943-1.17617855-3.67-.47l-3.18 1.93c-1.5788708-.88544854-3.2572844-1.58031179-5-2.07l-.9-3.59c-.3329268-1.32719497-1.5217146-2.26094876-2.89-2.27h-4.88c-1.3757473-.0000788-2.5752348.93560391-2.91 2.27l-.9 3.59c-1.7427156.48968821-3.4211292 1.18455146-5 2.07l-3.16-1.93c-1.1813654-.71130037-2.6954809-.52564589-3.67.45l-3.45 3.47c-.98220909.9695817-1.17617855 2.4841943-.47 3.67l1.91 3.18c-.88544854 1.5788708-1.58031179 3.2572844-2.07 5l-3.59.9c-1.31925904.3406137-2.24330236 1.527496-2.25 2.89v4.88c-.0000788 1.3757473.93560391 2.5752348 2.27 2.91l3.59.9c.48968821 1.7427156 1.18455146 3.4211292 2.07 5l-1.93 3.16c-.71130037 1.1813654-.52564589 2.6954809.45 3.67l3.45 3.45c.9745191.9756459 2.4886346 1.1613004 3.67.45l3.18-1.91c1.2475725.697967 2.5563548 1.2803919 3.91 1.74.5246705.1767311 1.0932689-.1053295 1.27-.63s-.1053295-1.0932689-.63-1.27c-3.83-1.28-4.12-2.43-5.07-1.86l-3.68 2.21c-.3953139.2406456-.904106.1785978-1.23-.15l-3.43-3.45c-.3285978-.325894-.39064562-.8346861-.15-1.23l2.26-3.68c.65-1.09-1-1.56-2.31-6.58-.09241829-.3559795-.37277974-.6325003-.73-.72l-4.16-1c-.45319995-.116766-.76480059-.5322336-.75-1v-4.89c-.01480059-.4677664.29680005-.883234.75-1l4.16-1c.35722026-.0874997.63758171-.3640205.73-.72.49467695-1.959241 1.27289221-3.8357168 2.31-5.57.1786328-.3094011.1786328-.6905989 0-1l-2.26-3.7c-.24064562-.3953139-.1785978-.904106.15-1.23l3.45-3.45c.325894-.3285978.8346861-.39064562 1.23-.15l3.68 2.26c1.08.65 1.56-1 6.58-2.31.3559795-.09241829.6325003-.37277974.72-.73l1-4.16c.116766-.45319995.5322336-.76480059 1-.75h4.88c.4677664-.01480059.883234.29680005 1 .75l1 4.16c.0874997.35722026.3640205.63758171.72.73 5 1.28 5.5 3 6.58 2.31l3.68-2.21c.3953139-.24064562.904106-.1785978 1.23.15l3.45 3.45c.3285978.325894.3906456.8346861.15 1.23l-2.21 3.68c-.65 1.09 1 1.56 2.31 6.58.0924183.3559795.3727797.6325003.73.72l4.16 1c.4531999.116766.7648006.5322336.75 1v4.88c.0148006.4677664-.2968001.883234-.75 1l-4.16 1c-.3572203.0874997-.6375817.3640205-.73.72-.4955957 1.955782-1.2737855 3.8288277-2.31 5.56-.1786328.3094011-.1786328.6905989 0 1l2.21 3.68c.2406456.3953139.1785978.904106-.15 1.23l-3.45 3.45c-.325894.3285978-.8346861.3906456-1.23.15l-3.68-2.21c-1-.57-1.23.58-5.07 1.86-.5246705.1767312-.806731.7453295-.6299999 1.27s.7453294.8067311 1.2699999.63c1.3536452-.4596081 2.6624275-1.042033 3.91-1.74 3.23 1.92 3.63 2.33 4.79 2.33.7988461.0019575 1.5654828-.314775 2.13-.88l3.45-3.45c.9658523-.9818833 1.1390492-2.4952942.42-3.67l-1.91-3.18c.8854485-1.5788708 1.5803118-3.2572844 2.07-5l3.59-.9c1.319259-.3406137 2.2433024-1.527496 2.25-2.89v-4.88c.0000788-1.3757473-.9356039-2.5752348-2.27-2.91z"/><path id="Shape" d="m35 45.58c.1343113.002446.2674983-.0248744.39-.08 8.328343-3.5161487 13.025968-12.4134731 11.2322293-21.2738963-1.7937386-8.8604233-9.5820634-15.23004326-18.6222293-15.23004326s-16.8284907 6.36961996-18.62222935 15.23004326c-1.79373866 8.8604232 2.90388635 17.7577476 11.23222935 21.2738963.3316478.1560074.7220669.1180873 1.0174942-.0988257.2954274-.2169129.4485222-.5780598.3989895-.9412058-.0495327-.3631461-.2937557-.6700992-.6364837-.7999685-7.4524937-3.1451931-11.65669775-11.1060318-10.0522213-19.0343076 1.6044764-7.9282758 8.5732225-13.6280007 16.6622213-13.6280007s15.0577449 5.6997249 16.6622213 13.6280007c1.6044765 7.9282758-2.5997276 15.8891145-10.0522213 19.0343076-.4368475.1860939-.6825935.6537311-.5880733 1.1190618.0945203.4653306.5032408.8000293.9780733.8009382z"/><path id="Shape" d="m28 60c2.209139 0 4-1.790861 4-4v-23h7.38c.6920863-.0003672 1.3347954-.3585153 1.6992185-.9468854.364423-.5883702.3987601-1.3233301.0907815-1.9431146l-5-10c-.33773-.6796577-1.031056-1.1095973-1.79-1.11h-15.53c-.9875632-.0135218-1.8371294.695866-2 1.67l-1.66 10c-.0978925.5848131.0687578 1.1829153.4549623 1.6328435s.9521438.7052931 1.5450377.6971565h6.81v23c0 2.209139 1.790861 4 4 4zm2-4c0 1.1045695-.8954305 2-2 2s-2-.8954305-2-2v-23h4zm-11.15-35h15.53l5 10h-22.2z"/></g></g></svg>