<svg id="Layer_2" height="512" viewBox="0 0 64 64" width="512" xmlns="http://www.w3.org/2000/svg" data-name="Layer 2"><path d="m48 55 1-6-2-10h9.833v16z" fill="#0d6e8c"/><path d="m22 55v-6l-1-10 8.333-1.083v17.083z" fill="#0d6e8c"/><path d="m31.962 8.886a29.958 29.958 0 0 0 -29.962 30.114 29.435 29.435 0 0 0 3 13h5s-2-13.092 11-13h41c-.527-16.562-13.385-30.114-30.038-30.114z" fill="#ffde17"/><path d="m56 55v-6l-2-10h8v16z" fill="#058cc1"/><path d="m27 55v-6l-2-10h7v16z" fill="#058cc1"/><path d="m50.957 39c-.654-4.484 0-7.925 1.952-10.227a8.5 8.5 0 0 1 5.871-2.873 32.037 32.037 0 0 1 3.22 13.1z" fill="#1799da"/><path d="m10 52h-5a29.565 29.565 0 0 1 -3-13 30 30 0 0 1 16.229-26.79c.565.208 13.768 5.334 9.74 26.79h-7.169c-3.682 0-6.5 1.1-8.369 3.259-3.314 3.831-2.439 9.69-2.431 9.749z" fill="#058cc1"/><path d="m13 33h-4a1 1 0 0 1 0-2h4a1 1 0 0 1 0 2z" fill="#192b54"/><path d="m13.962 26.038a1 1 0 0 1 -.707-1.707l4.038-4.038a1 1 0 0 1 1.414 1.414l-4.038 4.038a1 1 0 0 1 -.707.293z" fill="#192b54"/><g fill="#d6ae03"><path d="m43 33h-1a1 1 0 0 1 0-2h1a1 1 0 0 1 0 2z"/><path d="m47 33h-1a1 1 0 0 1 0-2h1a1 1 0 0 1 0 2z"/></g></svg>