<?xml version="1.0" encoding="iso-8859-1"?>
<!-- Generator: Adobe Illustrator 19.0.0, SVG Export Plug-In . SVG Version: 6.00 Build 0)  -->
<svg version="1.1" id="Capa_1" xmlns="http://www.w3.org/2000/svg" xmlns:xlink="http://www.w3.org/1999/xlink" x="0px" y="0px"
	 viewBox="0 0 426.667 426.667" style="enable-background:new 0 0 426.667 426.667;" xml:space="preserve">
<rect x="7.441" y="172.29" style="fill:#F6C358;" width="412.587" height="209.067"/>
<rect x="61.675" y="44.922" style="fill:#64798A;" width="300.373" height="336.427"/>
<rect x="163.755" y="265.815" style="fill:#EBF0F3;" width="100.045" height="115.541"/>
<g>
	<rect x="209.621" y="265.815" style="fill:#3A556A;" width="8.503" height="115.541"/>
	<rect x="201.003" y="315.565" style="fill:#3A556A;" width="4.002" height="20.198"/>
	<rect x="223.275" y="315.565" style="fill:#3A556A;" width="4.002" height="20.198"/>
</g>
<rect y="381.357" style="fill:#64798A;" width="426.667" height="12.617"/>
<rect x="15.753" y="202.669" style="fill:#2D93BA;" width="41.318" height="32.597"/>
<polygon style="fill:#27A2DB;" points="15.751,235.267 15.751,202.669 57.069,202.669 "/>
<rect x="15.753" y="244.226" style="fill:#2D93BA;" width="41.318" height="32.597"/>
<polygon style="fill:#27A2DB;" points="15.751,276.818 15.751,244.221 57.069,244.221 "/>
<rect x="15.753" y="285.771" style="fill:#2D93BA;" width="41.318" height="32.597"/>
<polygon style="fill:#27A2DB;" points="15.751,318.37 15.751,285.772 57.069,285.772 "/>
<rect x="15.753" y="327.341" style="fill:#2D93BA;" width="41.318" height="32.597"/>
<polygon style="fill:#27A2DB;" points="15.751,359.922 15.751,327.324 57.069,327.324 "/>
<circle style="fill:#E1E6E9;" cx="213.76" cy="92.9" r="40.917"/>
<g>
	<rect x="207.104" y="63.849" style="fill:#D15241;" width="12.885" height="58.099"/>
	<rect x="184.491" y="86.445" style="fill:#D15241;" width="58.099" height="12.885"/>
</g>
<rect x="36.412" y="32.693" style="fill:#3A556A;" width="352.171" height="12.617"/>
<rect x="311.936" y="147.462" style="fill:#D5D6DB;" width="29.995" height="23.68"/>
<polygon style="fill:#EBF0F3;" points="311.935,171.142 311.935,147.463 341.95,147.463 "/>
<rect x="272.956" y="147.462" style="fill:#D5D6DB;" width="29.995" height="23.68"/>
<polygon style="fill:#EBF0F3;" points="272.955,171.142 272.955,147.463 302.97,147.463 "/>
<rect x="311.936" y="177.197" style="fill:#D5D6DB;" width="29.995" height="23.68"/>
<polygon style="fill:#EBF0F3;" points="311.935,200.856 311.935,177.177 341.95,177.177 "/>
<rect x="272.956" y="177.197" style="fill:#D5D6DB;" width="29.995" height="23.68"/>
<polygon style="fill:#EBF0F3;" points="272.955,200.856 272.955,177.177 302.97,177.177 "/>
<rect x="311.936" y="206.893" style="fill:#D5D6DB;" width="29.995" height="23.68"/>
<polygon style="fill:#EBF0F3;" points="311.935,230.57 311.935,206.891 341.95,206.891 "/>
<rect x="272.956" y="206.893" style="fill:#D5D6DB;" width="29.995" height="23.68"/>
<polygon style="fill:#EBF0F3;" points="272.955,230.57 272.955,206.891 302.97,206.891 "/>
<rect x="216.35" y="147.462" style="fill:#D5D6DB;" width="29.995" height="23.68"/>
<polygon style="fill:#EBF0F3;" points="216.351,171.142 216.351,147.463 246.366,147.463 "/>
<rect x="177.37" y="147.462" style="fill:#D5D6DB;" width="29.995" height="23.68"/>
<polygon style="fill:#EBF0F3;" points="177.371,171.142 177.371,147.463 207.386,147.463 "/>
<rect x="216.35" y="177.197" style="fill:#D5D6DB;" width="29.995" height="23.68"/>
<polygon style="fill:#EBF0F3;" points="216.351,200.856 216.351,177.177 246.366,177.177 "/>
<rect x="177.37" y="177.197" style="fill:#D5D6DB;" width="29.995" height="23.68"/>
<polygon style="fill:#EBF0F3;" points="177.371,200.856 177.371,177.177 207.386,177.177 "/>
<rect x="216.35" y="206.893" style="fill:#D5D6DB;" width="29.995" height="23.68"/>
<polygon style="fill:#EBF0F3;" points="216.351,230.57 216.351,206.891 246.366,206.891 "/>
<rect x="177.37" y="206.893" style="fill:#D5D6DB;" width="29.995" height="23.68"/>
<polygon style="fill:#EBF0F3;" points="177.371,230.57 177.371,206.891 207.386,206.891 "/>
<rect x="120.747" y="147.462" style="fill:#D5D6DB;" width="29.995" height="23.68"/>
<polygon style="fill:#EBF0F3;" points="120.767,171.142 120.767,147.463 150.782,147.463 "/>
<rect x="81.792" y="147.462" style="fill:#D5D6DB;" width="29.995" height="23.68"/>
<polygon style="fill:#EBF0F3;" points="81.788,171.142 81.788,147.463 111.802,147.463 "/>
<rect x="120.747" y="177.197" style="fill:#D5D6DB;" width="29.995" height="23.68"/>
<polygon style="fill:#EBF0F3;" points="120.767,200.856 120.767,177.177 150.782,177.177 "/>
<rect x="81.792" y="177.197" style="fill:#D5D6DB;" width="29.995" height="23.68"/>
<polygon style="fill:#EBF0F3;" points="81.788,200.856 81.788,177.177 111.802,177.177 "/>
<rect x="120.747" y="206.893" style="fill:#D5D6DB;" width="29.995" height="23.68"/>
<polygon style="fill:#EBF0F3;" points="120.767,230.57 120.767,206.891 150.782,206.891 "/>
<rect x="81.792" y="206.893" style="fill:#D5D6DB;" width="29.995" height="23.68"/>
<polygon style="fill:#EBF0F3;" points="81.788,230.57 81.788,206.891 111.802,206.891 "/>
<rect x="367.915" y="202.669" style="fill:#2D93BA;" width="41.318" height="32.597"/>
<polygon style="fill:#27A2DB;" points="367.923,235.267 367.923,202.669 409.242,202.669 "/>
<rect x="367.915" y="244.226" style="fill:#2D93BA;" width="41.318" height="32.597"/>
<polygon style="fill:#27A2DB;" points="367.923,276.818 367.923,244.221 409.242,244.221 "/>
<rect x="367.915" y="285.771" style="fill:#2D93BA;" width="41.318" height="32.597"/>
<polygon style="fill:#27A2DB;" points="367.923,318.37 367.923,285.772 409.242,285.772 "/>
<rect x="367.915" y="327.341" style="fill:#2D93BA;" width="41.318" height="32.597"/>
<polygon style="fill:#27A2DB;" points="367.923,359.922 367.923,327.324 409.242,327.324 "/>
<g>
	<rect x="294.485" y="312.663" style="fill:#E1E6E9;" width="37.248" height="68.693"/>
	<rect x="94.037" y="312.663" style="fill:#E1E6E9;" width="37.248" height="68.693"/>
</g>
<g>
</g>
<g>
</g>
<g>
</g>
<g>
</g>
<g>
</g>
<g>
</g>
<g>
</g>
<g>
</g>
<g>
</g>
<g>
</g>
<g>
</g>
<g>
</g>
<g>
</g>
<g>
</g>
<g>
</g>
</svg>
